<svg xmlns="http://www.w3.org/2000/svg" viewBox="0 0 320 210" fill="none"><g stroke="#5493b1" stroke-width=".7" opacity=".3"><path d="M-30 35C60 -45 110 135 185 75S275 -55 350 20"/><path d="M-30 42C60 -38 110 142 185 82S275 -48 350 27"/><path d="M-30 49C60 -31 110 149 185 89S275 -41 350 34"/><path d="M-30 56C60 -24 110 156 185 96S275 -34 350 41"/><path d="M-30 63C60 -17 110 163 185 103S275 -27 350 48"/><path d="M-30 70C60 -10 110 170 185 110S275 -20 350 55"/><path d="M-30 77C60 -3 110 177 185 117S275 -13 350 62"/><path d="M-30 84C60 4 110 184 185 124S275 -6 350 69"/><path d="M-30 91C60 11 110 191 185 131S275 1 350 76"/><path d="M-30 98C60 18 110 198 185 138S275 8 350 83"/><path d="M-30 105C60 25 110 205 185 145S275 15 350 90"/><path d="M-30 112C60 32 110 212 185 152S275 22 350 97"/><path d="M-30 119C60 39 110 219 185 159S275 29 350 104"/><path d="M-30 126C60 46 110 226 185 166S275 36 350 111"/><path d="M-30 133C60 53 110 233 185 173S275 43 350 118"/><path d="M-30 140C60 60 110 240 185 180S275 50 350 125"/><path d="M-30 147C60 67 110 247 185 187S275 57 350 132"/><path d="M-30 154C60 74 110 254 185 194S275 64 350 139"/><path d="M-30 161C60 81 110 261 185 201S275 71 350 146"/><path d="M-30 168C60 88 110 268 185 208S275 78 350 153"/></g></svg>